<?xml version="1.0" encoding="UTF-8" standalone="no"?>
<!DOCTYPE svg PUBLIC "-//W3C//DTD SVG 1.1//EN" "http://www.w3.org/Graphics/SVG/1.1/DTD/svg11.dtd">
<svg width="43.00" height="37.00" viewBox="0.00 0.00 43.00 37.00" xmlns="http://www.w3.org/2000/svg" xmlns:xlink="http://www.w3.org/1999/xlink">
<g stroke-linecap="round" transform="translate(-571.00, -967.00)" id="Layer_31">
<path d="M589.50,968.75 C592.30,968.77 598.37,970.85 600.70,972.78 C603.24,974.95 606.03,979.69 606.69,982.93 C607.23,985.87 606.03,992.06 604.66,994.44 C603.24,996.80 598.37,1000.90 595.49,1001.92 C592.30,1002.98 586.70,1002.98 583.51,1001.92 C580.63,1000.90 575.76,996.80 574.34,994.44 C572.97,992.06 571.77,985.88 572.31,982.93 C572.97,979.69 575.76,974.95 578.30,972.78 C580.63,970.85 586.70,968.77 589.50,968.75 Z" fill="none" stroke="rgb(0, 0, 0)" stroke-width="3.00" stroke-opacity="1.00" stroke-linejoin="round"/>
</g>
</svg>
