<?xml version="1.0" encoding="UTF-8" standalone="no"?>
<!DOCTYPE svg PUBLIC "-//W3C//DTD SVG 1.1//EN" "http://www.w3.org/Graphics/SVG/1.1/DTD/svg11.dtd">
<svg width="297.00" height="38.00" viewBox="0.00 0.00 297.00 38.00" xmlns="http://www.w3.org/2000/svg" xmlns:xlink="http://www.w3.org/1999/xlink">
<g stroke-linecap="round" transform="translate(-294.00, -986.00)" id="drywet_slider">
<path d="M577.75,1005.50 C577.75,1005.50 575.38,1000.12 575.38,1000.12 C575.38,1000.12 556.50,999.88 556.50,999.88 C556.50,999.88 305.75,1000.88 305.75,1000.88 C305.75,1000.88 301.75,1006.00 301.75,1006.00 C301.75,1006.00 305.00,1011.38 305.00,1011.38 C305.00,1011.38 574.50,1011.12 574.50,1011.12 C574.50,1011.12 577.38,1008.88 577.38,1008.88 C577.38,1008.88 577.75,1005.50 577.75,1005.50 Z" fill="none" stroke="rgb(0, 0, 0)" stroke-width="3.00" stroke-opacity="1.00" stroke-linejoin="round"/>
<path d="M442.75,1000.38 L443.00,991.38" fill="none" stroke="rgb(0, 0, 0)" stroke-width="3.00" stroke-opacity="1.00" stroke-linejoin="round"/>
<path d="M442.75,1011.88 L443.38,1023.50" fill="none" stroke="rgb(0, 0, 0)" stroke-width="3.00" stroke-opacity="1.00" stroke-linejoin="round"/>
<path d="M584.50,1005.50 L584.88,1006.12" fill="none" stroke="rgb(0, 0, 0)" stroke-width="3.00" stroke-opacity="1.00" stroke-linejoin="round"/>
<path d="M297.62,1006.75 L297.62,1007.38" fill="none" stroke="rgb(0, 0, 0)" stroke-width="3.00" stroke-opacity="1.00" stroke-linejoin="round"/>
</g>
</svg>
