<?xml version="1.0" encoding="UTF-8" standalone="no"?>
<!DOCTYPE svg PUBLIC "-//W3C//DTD SVG 1.1//EN" "http://www.w3.org/Graphics/SVG/1.1/DTD/svg11.dtd">
<svg width="127.00" height="122.00" viewBox="0.00 0.00 127.00 122.00" xmlns="http://www.w3.org/2000/svg" xmlns:xlink="http://www.w3.org/1999/xlink">
<g stroke-linecap="round" transform="translate(-523.00, -812.00)" id="Layer_29">
<path d="M606.74,926.47 C603.83,927.58 596.10,929.32 592.32,929.71 C588.54,930.09 580.60,929.93 577.51,929.43 C574.43,928.92 566.84,926.51 563.35,924.95 C559.88,923.36 553.05,919.22 550.61,917.24 C548.19,915.24 542.77,909.33 540.51,906.23 C538.28,903.11 534.38,896.09 533.25,893.15 C532.13,890.20 530.34,882.38 529.92,878.57 C529.52,874.75 529.61,866.73 530.07,863.63 C530.56,860.52 532.88,852.88 534.40,849.38 C535.95,845.88 540.00,839.02 541.94,836.58 C543.90,834.15 549.71,828.73 552.77,826.48 C555.85,824.25 562.77,820.38 565.67,819.25 C568.58,818.15 576.32,816.41 580.10,816.01 C583.88,815.64 591.82,815.79 594.90,816.29 C597.98,816.81 605.58,819.21 609.06,820.78 C612.53,822.36 619.37,826.50 621.80,828.49 C624.23,830.49 629.65,836.39 631.90,839.50 C634.14,842.62 638.03,849.64 639.17,852.57 C640.28,855.52 642.08,863.34 642.50,867.16 C642.90,870.98 642.81,878.99 642.34,882.10 C641.85,885.20 639.53,892.85 638.01,896.35 C636.47,899.84 632.42,906.70 630.47,909.15 C628.51,911.58 622.70,917.00 619.64,919.25 C616.57,921.48 609.65,925.35 606.74,926.47 Z" fill="none" stroke="rgb(16, 12, 13)" stroke-width="4.18" stroke-opacity="1.00" stroke-linejoin="round"/>
<path d="M599.99,904.79 C596.98,906.00 589.40,907.30 585.68,907.25 C582.06,907.16 574.96,905.24 571.65,903.66 C568.01,901.87 562.87,897.85 560.26,894.73 C557.92,891.88 554.32,885.41 553.34,881.90 C552.38,878.27 551.76,870.54 552.18,867.30 C552.63,864.07 555.25,856.80 557.13,853.58 C558.99,850.47 564.15,845.25 567.16,843.16 C570.49,840.89 576.49,838.45 580.46,837.74 C584.07,837.15 591.41,837.28 594.92,838.21 C598.51,839.20 605.47,842.57 608.05,844.57 C610.60,846.60 615.56,852.57 617.40,855.84 C619.15,859.03 621.09,866.17 621.41,869.85 C621.71,873.90 620.85,880.37 619.49,884.19 C618.22,887.64 614.48,893.97 611.95,896.56 C609.32,899.19 602.98,903.55 599.99,904.79 Z" fill="none" stroke="rgb(16, 12, 13)" stroke-width="4.06" stroke-opacity="1.00" stroke-linejoin="round"/>
<path d="M602.16,909.40 C599.33,910.54 592.04,912.03 588.50,912.20 C584.60,912.35 578.56,911.49 574.85,910.25 C571.48,909.10 564.86,905.63 562.43,903.75 C560.03,901.85 555.06,896.23 553.12,893.22 C551.02,889.90 548.70,884.20 547.89,880.36 C547.17,876.85 546.81,869.36 547.20,866.32 C547.62,863.28 549.94,856.17 551.55,852.99 C553.34,849.52 557.07,844.68 559.97,842.07 C562.62,839.72 568.88,835.70 571.69,834.54 C574.52,833.40 581.81,831.91 585.35,831.74 C589.25,831.59 595.29,832.45 599.00,833.68 C602.37,834.84 608.99,838.31 611.42,840.19 C613.82,842.09 618.79,847.71 620.73,850.72 C622.83,854.04 625.15,859.74 625.96,863.58 C626.68,867.09 627.04,874.58 626.65,877.62 C626.23,880.66 623.91,887.77 622.30,890.95 C620.51,894.42 616.78,899.26 613.88,901.87 C611.23,904.22 604.97,908.24 602.16,909.40 Z" fill="none" stroke="rgb(16, 12, 13)" stroke-width="4.66" stroke-opacity="1.00" stroke-linejoin="round"/>
<path d="M587.25,837.75 L587.25,867.75" fill="none" stroke="rgb(0, 0, 0)" stroke-width="3.00" stroke-opacity="1.00" stroke-linejoin="round"/>
<path d="M588.25,816.00 L588.25,824.50" fill="none" stroke="rgb(0, 0, 0)" stroke-width="3.00" stroke-opacity="1.00" stroke-linejoin="round"/>
<path d="M587.75,929.50 L587.50,922.50" fill="none" stroke="rgb(0, 0, 0)" stroke-width="3.00" stroke-opacity="1.00" stroke-linejoin="round"/>
<path d="M625.25,832.75 L620.50,837.50" fill="none" stroke="rgb(0, 0, 0)" stroke-width="3.00" stroke-opacity="1.00" stroke-linejoin="round"/>
<path d="M642.00,870.75 L636.00,870.75" fill="none" stroke="rgb(0, 0, 0)" stroke-width="3.00" stroke-opacity="1.00" stroke-linejoin="round"/>
<path d="M630.25,909.25 L625.25,904.50" fill="none" stroke="rgb(0, 0, 0)" stroke-width="3.00" stroke-opacity="1.00" stroke-linejoin="round"/>
<path d="M548.25,913.75 L552.50,908.75" fill="none" stroke="rgb(0, 0, 0)" stroke-width="3.00" stroke-opacity="1.00" stroke-linejoin="round"/>
<path d="M529.75,871.25 L536.50,871.25" fill="none" stroke="rgb(0, 0, 0)" stroke-width="3.00" stroke-opacity="1.00" stroke-linejoin="round"/>
<path d="M548.00,831.00 L553.00,837.00" fill="none" stroke="rgb(0, 0, 0)" stroke-width="3.00" stroke-opacity="1.00" stroke-linejoin="round"/>
</g>
</svg>
